<svg width="300" height="300" viewBox="0 0 300 300" fill="none" xmlns="http://www.w3.org/2000/svg">
<mask id="mask0" mask-type="alpha" maskUnits="userSpaceOnUse" x="0" y="0" width="300" height="300">
<path d="M300 150C300 232.843 232.843 300 150 300C67.1573 300 0 232.843 0 150C0 67.1573 67.1573 0 150 0C232.843 0 300 67.1573 300 150Z" fill="#148292"/>
</mask>
<g mask="url(#mask0)">
<path d="M300 150C300 232.843 232.843 300 150 300C67.1573 300 0 232.843 0 150C0 67.1573 67.1573 0 150 0C232.843 0 300 67.1573 300 150Z" fill="#148292"/>
<path d="M197.617 108.664L177.558 95.1887C247.782 95.1887 267.343 145.428 261.371 184.961C255.4 224.494 219.842 241.052 200.154 244.88C184.404 247.943 165.687 242.222 158.297 238.979L177.558 233.365L204.141 217.772L175.761 141.677L177.558 129.075L197.617 108.664Z" fill="#43B3BE"/>
<path d="M183.554 103.977L181.091 95.3549C230.575 100.463 254.323 142.134 248.352 181.667C242.381 221.2 205.779 236.364 186.091 240.193C170.341 243.255 151.624 237.534 144.234 234.291L163.495 228.677L190.079 213.084L161.699 136.989L163.495 124.387L183.554 103.977Z" fill="#E9F3FD"/>
<path d="M179.894 104.183L177.431 95.5608C226.916 100.669 250.663 142.34 244.692 181.873C238.721 221.406 202.12 236.57 182.432 240.398C166.681 243.461 147.964 237.74 140.575 234.497L159.836 228.883L186.419 213.29L158.039 137.195L159.836 124.593L179.894 104.183Z" fill="#84CCD8"/>
<path d="M166.17 118.083L171.625 112.101C177.079 112.101 202.241 113.684 216.317 132.511C230.394 151.339 230.922 161.72 228.106 180.371C225.291 199.022 209.631 211.691 199.25 218.377C190.945 223.726 173.736 225.181 166.17 225.24L172.856 220.665C177.373 221.075 189.572 219.855 202.241 211.691C218.077 201.486 225.115 185.122 224.939 167.174C224.763 149.227 214.91 137.262 202.241 126.353C192.106 117.626 173.971 117.203 166.17 118.083Z" fill="#43B3BE"/>
<path d="M49.8297 128.04C58.1695 106.075 82.6694 92.1662 93.8769 87.9572L102.518 92.7309V97.6669L103.752 128.04L105.162 142.267L125.259 157.428L149.939 189.865L142.359 207.846L125.259 224.241C121.851 225.592 114.717 228.472 113.448 229.177C111.861 230.058 78.7193 228.295 60.5618 203.615C42.4043 178.935 39.405 155.496 49.8297 128.04Z" fill="#84CCD8"/>
<path d="M74.1357 119.703C82.3154 110.113 93.0571 105.6 97.4056 104.542L96.524 109.654C85.5942 115.472 64.3341 133.841 66.7316 160.778C69.7284 194.448 96.524 207.141 114.153 208.375C128.256 209.362 138.48 204.79 141.83 202.381L139.362 213.487C136.189 214.427 123.884 216.026 114.153 216.308C101.989 216.66 74.136 208.551 62.8536 182.461C51.5713 156.37 63.9112 131.69 74.1357 119.703Z" fill="#E9F3FD"/>
<path d="M74.1357 119.703C82.3153 110.113 93.0571 105.6 97.4055 104.542L96.524 109.654C85.5942 115.472 64.334 133.841 66.7315 160.778C69.7284 194.448 96.524 207.141 114.153 208.375C128.256 209.362 138.48 204.79 141.83 202.381L139.009 210.667C135.836 211.607 127.057 213.558 117.326 213.84C105.162 214.192 76.7801 207.846 65.4977 181.756C54.2154 155.665 63.9111 131.69 74.1357 119.703Z" fill="#43B3BE"/>
<path d="M128.377 217.795L145.805 192.842L162.44 189.673L142.636 217.795L126.198 227.499L112.534 229.282L128.377 217.795Z" fill="#26656F"/>
<path d="M146.2 193.04L125.802 169.077L141.447 164.126L162.638 189.673L146.2 193.04Z" fill="#43B3BE"/>
<path d="M126 169.275L101.046 144.718L116.692 141.153L142.239 164.918L126 169.275Z" fill="#26656F"/>
<path d="M100.849 144.916L88.1738 120.755L104.215 116.992L117.682 141.549L100.849 144.916Z" fill="#43B3BE"/>
<path d="M88.1738 121.349L99.0663 94.2172L115.504 90.2563L104.809 118.18L88.1738 121.349Z" fill="#26656F"/>
<path d="M99.067 94.0191L93.7197 88.0779L109.959 84.117L115.9 90.4544L99.067 94.0191Z" fill="#43B3BE"/>
<path d="M122.003 127.238L128.309 119.185L131.196 122.224L135.602 127.238L142.288 129.137L134.235 135.898L126.637 134.075L122.003 127.238Z" fill="#84CCD8"/>
<path d="M139.355 135.985H134.015L139.639 129.792L144.866 129.224L139.355 135.985Z" fill="#26656F"/>
<path d="M139.693 129.829L132.475 127.331L136.806 125.499L144.801 129.219L139.693 129.829Z" fill="#43B3BE"/>
<path d="M132.416 127.414L128.263 119.193L133.517 117.753L136.907 125.549L132.416 127.414Z" fill="#26656F"/>
<path d="M191.542 63.6362L181.705 83.8503L206.231 74.5518L191.542 63.6362Z" fill="#84CCD8"/>
<path d="M184.13 90.3188L181.435 83.8503L206.096 74.4171L208.791 81.8289L184.13 90.3188Z" fill="#43B3BE"/>
<path d="M138.281 56.25L133.594 -2.34375L157.031 -9.375L154.688 56.25H171.094L145.312 100.781L121.875 56.25H138.281Z" fill="#84CCD8"/>
<path d="M95.8703 56.8986L86.4438 65.3435L99.4056 72.2174L105.887 66.9147L95.8703 56.8986Z" fill="#84CCD8"/>
<path d="M101.173 78.8948L99.4054 72.0209L86.2471 65.1471L87.6219 72.0209L101.173 78.8948Z" fill="#43B3BE"/>
<path d="M101.16 78.4664L99.4673 71.9897L105.797 66.1755L107.195 72.5049L101.16 78.4664Z" fill="#26656F"/>
<ellipse cx="151.747" cy="257.207" rx="54.1153" ry="7.59515" fill="#0D454E"/>
</g>
</svg>
