<svg width="40" height="40" viewBox="0 0 40 40" fill="none" xmlns="http://www.w3.org/2000/svg">
<path d="M28.5 38C28.1726 38 27.8569 37.8783 27.6109 37.6571C26.6817 36.8233 25.7859 36.0398 24.9956 35.3486L24.9915 35.345C22.6744 33.3185 20.6734 31.5685 19.2812 29.8445C17.7249 27.9173 17 26.0899 17 24.0937C17 22.1542 17.648 20.3649 18.8246 19.0551C20.0152 17.7299 21.6489 17 23.4252 17C24.7529 17 25.9688 17.4308 27.039 18.2802C27.5791 18.709 28.0687 19.2338 28.5 19.8459C28.9315 19.2338 29.4209 18.709 29.9612 18.2802C31.0314 17.4308 32.2473 17 33.5749 17C35.3511 17 36.985 17.7299 38.1756 19.0551C39.3521 20.3649 40 22.1542 40 24.0937C40 26.0899 39.2753 27.9173 37.719 29.8443C36.3268 31.5685 34.326 33.3183 32.0092 35.3447C31.2174 36.0369 30.3202 36.8217 29.389 37.6575C29.1431 37.8783 28.8273 38 28.5 38Z" fill="#C0541C"/>
<path d="M20 37.7747C19.4305 37.7747 18.8815 37.5684 18.4537 37.1936C16.8378 35.7806 15.2798 34.4528 13.9053 33.2816L13.8983 33.2755C9.86847 29.8413 6.38855 26.8756 3.96728 23.9542C1.26068 20.6882 0 17.5916 0 14.2087C0 10.9219 1.12701 7.88971 3.17322 5.67017C5.24383 3.42438 8.08502 2.1875 11.1743 2.1875C13.4833 2.1875 15.5978 2.91748 17.4591 4.35699C18.3984 5.08362 19.2499 5.9729 20 7.01019C20.7504 5.9729 21.6016 5.08362 22.5412 4.35699C24.4025 2.91748 26.517 2.1875 28.826 2.1875C31.915 2.1875 34.7565 3.42438 36.8271 5.67017C38.8733 7.88971 40 10.9219 40 14.2087C40 17.5916 38.7396 20.6882 36.033 23.9539C33.6118 26.8756 30.1321 29.841 26.1029 33.2748C24.726 34.4479 23.1656 35.7779 21.546 37.1942C21.1185 37.5684 20.5692 37.7747 20 37.7747ZM11.1743 4.53064C8.74725 4.53064 6.51764 5.49927 4.89563 7.2583C3.24951 9.04388 2.34283 11.5121 2.34283 14.2087C2.34283 17.0538 3.40027 19.5984 5.77118 22.4591C8.06274 25.2243 11.4713 28.129 15.4178 31.4923L15.4251 31.4984C16.8048 32.6743 18.3688 34.0073 19.9966 35.4306C21.6342 34.0045 23.2007 32.6694 24.5831 31.4917C28.5294 28.1284 31.9376 25.2243 34.2291 22.4591C36.5997 19.5984 37.6572 17.0538 37.6572 14.2087C37.6572 11.5121 36.7505 9.04388 35.1044 7.2583C33.4827 5.49927 31.2527 4.53064 28.826 4.53064C27.048 4.53064 25.4156 5.09583 23.9743 6.21033C22.6898 7.20398 21.795 8.46008 21.2704 9.33899C21.0007 9.79095 20.5258 10.0607 20 10.0607C19.4742 10.0607 18.9993 9.79095 18.7296 9.33899C18.2053 8.46008 17.3105 7.20398 16.0257 6.21033C14.5843 5.09583 12.952 4.53064 11.1743 4.53064Z" fill="white"/>
<g clip-path="url(#clip0)">
<path d="M13.2901 19.6464C13.5109 19.8662 13.8382 19.9773 14.2639 19.9773C14.2961 19.9773 14.3289 19.9767 14.3623 19.9754C15.0524 19.949 15.7031 19.6652 16.1945 19.1762C16.6862 18.6868 16.9716 18.0386 16.9982 17.351C17.0164 16.8783 16.905 16.5186 16.667 16.2818L15.7805 15.3995L12.4016 18.7622L13.2901 19.6464Z" fill="white"/>
<path d="M10.71 10.3535C10.4724 10.1171 10.1117 10.0064 9.6378 10.0245C8.94769 10.0509 8.297 10.3348 7.80564 10.8238C7.3139 11.3132 7.02849 11.9614 7.00193 12.649C6.98368 13.1216 7.09511 13.4814 7.3331 13.7182L8.21958 14.6004L11.5985 11.2378L10.71 10.3535Z" fill="white"/>
<path d="M16.1943 10.8238C15.703 10.3348 15.0523 10.0509 14.3622 10.0246C13.8883 10.0064 13.5276 10.1171 13.29 10.3536L7.3331 16.2818C7.09509 16.5186 6.98368 16.8784 7.00193 17.351C7.02849 18.0386 7.31392 18.6868 7.80564 19.1762C8.29701 19.6652 8.9477 19.9491 9.63782 19.9755C9.67119 19.9767 9.70399 19.9774 9.73623 19.9774C10.1619 19.9774 10.4892 19.8662 10.71 19.6465L16.6669 13.7182C16.9049 13.4814 17.0163 13.1216 16.9981 12.649C16.9715 11.9614 16.6861 11.3132 16.1943 10.8238ZM11.0442 14.0488C11.1498 13.9438 11.321 13.9438 11.4265 14.0488C11.5321 14.1539 11.5321 14.3242 11.4265 14.4293C11.321 14.5344 11.1498 14.5344 11.0442 14.4293C10.9387 14.3242 10.9387 14.1539 11.0442 14.0488ZM11.0442 15.5707C11.1498 15.4657 11.3209 15.4657 11.4265 15.5707C11.5321 15.6758 11.5321 15.8462 11.4265 15.9512C11.3209 16.0563 11.1498 16.0563 11.0442 15.9512C10.9386 15.8462 10.9386 15.6758 11.0442 15.5707ZM10.2796 14.8098C10.3851 14.7047 10.5563 14.7047 10.6619 14.8098C10.7674 14.9149 10.7674 15.0852 10.6619 15.1903C10.5563 15.2953 10.3851 15.2953 10.2796 15.1903C10.174 15.0852 10.174 14.9149 10.2796 14.8098ZM12.1911 16.7121C12.0855 16.8172 11.9143 16.8172 11.8088 16.7121C11.7032 16.6071 11.7032 16.4367 11.8088 16.3317C11.9143 16.2266 12.0855 16.2266 12.1911 16.3317C12.2967 16.4367 12.2967 16.6071 12.1911 16.7121ZM12.1911 15.1902C12.0856 15.2953 11.9144 15.2953 11.8088 15.1902C11.7033 15.0852 11.7033 14.9148 11.8088 14.8098C11.9144 14.7047 12.0856 14.7047 12.1911 14.8098C12.2967 14.9148 12.2967 15.0852 12.1911 15.1902ZM12.1912 13.6683C12.0856 13.7734 11.9144 13.7734 11.8089 13.6683C11.7033 13.5633 11.7033 13.3929 11.8089 13.2878C11.9144 13.1828 12.0856 13.1828 12.1912 13.2878C12.2968 13.3929 12.2968 13.5633 12.1912 13.6683ZM12.9558 15.9512C12.8502 16.0562 12.679 16.0562 12.5735 15.9512C12.4679 15.8461 12.4679 15.6757 12.5735 15.5707C12.679 15.4656 12.8502 15.4656 12.9558 15.5707C13.0613 15.6758 13.0613 15.8461 12.9558 15.9512ZM12.9558 14.4293C12.8502 14.5343 12.6791 14.5343 12.5735 14.4293C12.4679 14.3242 12.4679 14.1538 12.5735 14.0488C12.6791 13.9437 12.8502 13.9437 12.9558 14.0488C13.0614 14.1538 13.0614 14.3242 12.9558 14.4293ZM13.7204 15.1902C13.6148 15.2952 13.4437 15.2952 13.3381 15.1902C13.2325 15.0851 13.2325 14.9148 13.3381 14.8097C13.4437 14.7046 13.6148 14.7046 13.7204 14.8097C13.826 14.9148 13.826 15.0851 13.7204 15.1902Z" fill="white"/>
</g>
<defs>
<clipPath id="clip0">
<rect x="7" y="10" width="10" height="10" fill="white"/>
</clipPath>
</defs>
</svg>
