<svg width="36" height="36" viewBox="0 0 36 36" fill="none" xmlns="http://www.w3.org/2000/svg">
<circle cx="18" cy="18" r="17.5" fill="#FBFBFB" stroke="#E1E1E1"/>
<path d="M26.2862 24H22.1182C21.8672 24 21.7373 23.8345 21.6934 23.7632C21.6494 23.6919 21.5586 23.5015 21.6709 23.2764L27.7843 11.0503C27.9249 10.7681 28.0001 10.4517 28.0001 10.0449C28.0001 8.9175 27.0831 8.00002 25.9551 8.00002C25.1759 8.00002 24.4747 8.43314 24.126 9.13041L20.9991 15.3843C20.4688 14.4107 19.3722 13.8633 18.2608 14.0308L12.9464 14.8487C12.1456 14.9717 11.4512 15.4776 11.0899 16.2017L8.42391 21.5347C8.14655 22.0889 8.00006 22.7095 8.00006 23.3291C8.00006 24.8589 8.84967 26.2339 10.2179 26.918L14.9181 29.2681C15.876 29.7471 16.9483 30 18.0186 30C18.7207 30 19.4161 29.8936 20.086 29.6841L27.1495 27.4771C27.2784 27.4365 27.3868 27.3452 27.4473 27.2236L27.8194 26.4795C27.9376 26.2427 28.0001 25.9776 28.0001 25.7134C28.0001 24.7686 27.2315 24 26.2862 24ZM26.9249 26.0327L26.6485 26.586L19.7872 28.73C18.3389 29.1817 16.7217 29.0513 15.3653 28.3736L10.6651 26.0235C9.63773 25.5098 9.00005 24.4776 9.00005 23.3291C9.00005 22.8638 9.11039 22.398 9.31842 21.9819L11.9844 16.6489C12.2012 16.2143 12.6182 15.9106 13.0987 15.8369L18.4132 15.019C19.1231 14.9121 19.8301 15.2768 20.1495 15.9175L20.5528 16.7236C20.7227 17.0625 21.2774 17.0625 21.4473 16.7236L25.0206 9.57764C25.1983 9.2212 25.5567 9 25.9551 9C26.5313 9 27.0001 9.46875 27.0001 10.1353C27.0001 10.2969 26.962 10.4585 26.8897 10.6026L20.7764 22.8296C20.5421 23.2979 20.5675 23.8437 20.8429 24.289C21.1183 24.7343 21.5948 25 22.1182 25H26.2862C26.6798 25 27.0001 25.3198 27.0001 25.7134C27 25.8237 26.9737 25.9341 26.9249 26.0327Z" fill="#848484"/>
<path d="M8.50008 12.022C8.54109 12.022 8.58309 12.0171 8.62411 12.0064L12.6241 10.9844C12.7872 10.9424 12.919 10.8208 12.9737 10.6607C13.0274 10.5005 12.9971 10.3238 12.8926 10.191L11.8594 8.87602C13.6504 7.66945 15.7803 7.00003 18 7.00003C19.7676 7.00003 21.4551 7.4063 23.0157 8.20753C23.2598 8.33255 23.5635 8.23781 23.6885 7.9912C23.8154 7.74558 23.7178 7.44384 23.4727 7.31784C21.793 6.45558 19.9004 6 18 6C15.3956 6 12.9024 6.8452 10.8633 8.35547C10.8526 8.36278 10.8419 8.37014 10.8311 8.37844C10.8281 8.38088 10.8252 8.38331 10.8223 8.38575C9.77442 9.16894 8.84667 10.1284 8.08692 11.2397C7.96973 11.4116 7.97072 11.6382 8.09081 11.8086C8.18559 11.9444 8.33991 12.022 8.50008 12.022ZM11.0557 9.47217L11.6329 10.2056L9.79697 10.6743C10.1866 10.2388 10.6075 9.83691 11.0557 9.47217Z" fill="#848484"/>
</svg>
