<svg width="40" height="40" viewBox="0 0 40 40" fill="none" xmlns="http://www.w3.org/2000/svg">
<g clip-path="url(#clip0)">
<path d="M2.18396 35.7901C0.826981 34.1296 0.00833702 31.9998 6.10352e-05 29.6761C-0.0188389 24.3778 4.27912 19.9999 9.50024 20C14.724 20.0001 18.963 24.2787 18.9998 29.5709C19.0366 34.8632 14.8144 39.226 9.59936 39.2803C8.73364 39.2893 7.89444 39.1804 7.09605 38.9689C6.64556 38.8496 6.16777 38.9117 5.76498 39.1487C5.19885 39.4819 4.54842 39.7715 3.895 39.9634C3.20719 40.1654 2.58075 39.4972 2.79905 38.8053C2.97292 38.254 2.93369 37.7017 2.83788 37.1837C2.74288 36.6698 2.51288 36.1926 2.18396 35.7901Z" fill="#2A795A"/>
<path d="M28.1323 37.3459L28.1323 37.3459C29.209 37.9703 30.4469 38.5129 31.6815 38.8701L31.6815 38.8702C32.2083 39.0226 32.7346 38.5149 32.5524 37.9459L32.5524 37.9459C32.1187 36.5909 32.2315 35.2761 32.4401 34.1646L28.1323 37.3459ZM28.1323 37.3459C27.0584 36.7232 25.7898 36.5633 24.6012 36.8736C23.0741 37.2722 21.4681 37.4777 19.8097 37.4607C9.83199 37.3583 1.74928 29.1285 1.8197 19.1496C1.89012 9.16929 10.0025 1.10022 19.9996 1.1C29.987 1.09978 38.2169 9.36068 38.1807 19.3482C38.1649 23.7313 36.599 27.7461 34.0017 30.878M28.1323 37.3459L34.0017 30.878M34.0017 30.878C33.2229 31.8171 32.6696 32.9411 32.4401 34.1645L34.0017 30.878Z" stroke="white" stroke-width="2.2"/>
<path d="M22.8651 27.0208V14.8233C22.8651 13.7802 21.7991 13.0766 20.84 13.4865C19.7777 13.9405 18.6432 14.2023 17.4894 14.2595L15.5868 14.3539C15.142 14.376 14.7927 14.743 14.7927 15.1884V16.3784C14.7927 16.8398 15.1668 17.214 15.6282 17.214H17.2976C17.6801 17.214 17.9901 17.524 17.9901 17.9064V27.0207H16.2809C15.4591 27.0207 14.7927 27.687 14.7927 28.5089V29.1148C14.7927 29.9368 15.459 30.603 16.2809 30.603H24.5743C25.3962 30.603 26.0625 29.9367 26.0625 29.1148V28.5089C26.0625 27.687 25.3962 27.0207 24.5743 27.0207L22.8651 27.0208Z" fill="white"/>
<path d="M20.4272 10.6461C21.7734 10.6461 22.8647 9.55479 22.8647 8.20859C22.8647 6.86239 21.7734 5.77109 20.4272 5.77109C19.081 5.77109 17.9897 6.86239 17.9897 8.20859C17.9897 9.55479 19.081 10.6461 20.4272 10.6461Z" fill="white"/>
</g>
<defs>
<clipPath id="clip0">
<rect width="40" height="40" fill="white"/>
</clipPath>
</defs>
</svg>
