<svg width="64" height="64" viewBox="0 0 64 64" fill="none" xmlns="http://www.w3.org/2000/svg">
<mask id="mask0" mask-type="alpha" maskUnits="userSpaceOnUse" x="0" y="0" width="64" height="64">
<circle cx="32" cy="32" r="32" fill="#148292"/>
</mask>
<g mask="url(#mask0)">
<circle cx="32" cy="32" r="32" fill="#148292"/>
<path fill-rule="evenodd" clip-rule="evenodd" d="M12.3093 23.1206C12.4091 23.1201 12.4995 23.179 12.5396 23.2703L20.5306 41.513C20.5645 41.5903 20.5571 41.6795 20.5109 41.7501C20.4647 41.8208 20.386 41.8633 20.3016 41.8633H4.53211C4.44815 41.8633 4.3698 41.8212 4.32352 41.7511C4.27724 41.6811 4.26921 41.5925 4.30214 41.5153L12.0806 23.2726C12.1197 23.1808 12.2096 23.1211 12.3093 23.1206ZM12.3137 24.0008L4.91048 41.3633H19.9192L12.3137 24.0008Z" fill="#84CCD8"/>
<path fill-rule="evenodd" clip-rule="evenodd" d="M50.7542 15.0491C50.8535 15.0486 50.9437 15.1069 50.984 15.1976L59.1385 33.5532H42.6041L50.526 15.2C50.5653 15.1089 50.6549 15.0496 50.7542 15.0491ZM50.7588 15.9223L43.3645 33.0532H58.3692L50.7588 15.9223Z" fill="#84CCD8"/>
<ellipse cx="31.7869" cy="49.3012" rx="6.45521" ry="1.43652" fill="#0C3C3C"/>
<path fill-rule="evenodd" clip-rule="evenodd" d="M26.4102 47V49.2312H26.4156C26.4943 49.7748 28.8623 50.2109 31.7718 50.2109C34.6814 50.2109 37.0493 49.7748 37.1281 49.2312H37.1324V47H26.4102Z" fill="#166164"/>
<ellipse cx="31.7718" cy="47.0204" rx="5.35825" ry="1.0076" fill="#43B3BE"/>
<path d="M30.2954 21.2046H33.4043V46.8274C33.4043 46.8274 33.1483 47.0415 31.8322 47.0415C30.516 47.0415 30.2954 46.8274 30.2954 46.8274V21.2046Z" fill="#84CCD8"/>
<mask id="mask1" mask-type="alpha" maskUnits="userSpaceOnUse" x="35" y="11" width="16" height="10">
<path d="M42.1517 18.3611C40.5198 19.9221 36.907 20.336 35.3046 20.3479V17.4032C36.2447 17.3264 38.3769 17.0946 39.3845 16.7824C40.6439 16.3921 43.216 14.4586 44.1739 13.749C45.1318 13.0395 46.6929 11.2656 48.7861 11.4075C50.4606 11.521 50.9502 12.6374 50.9857 13.1814H50.7019C50.0278 12.3831 48.7151 12.525 47.5266 13.004C46.3381 13.4829 44.1917 16.4098 42.1517 18.3611Z" fill="#BCBCBC"/>
</mask>
<g mask="url(#mask1)">
<path d="M42.1517 18.3611C40.5198 19.9221 36.907 20.336 35.3046 20.3479V17.4032C36.2447 17.3264 38.3769 17.0946 39.3845 16.7824C40.6439 16.3921 43.216 14.4586 44.1739 13.749C45.1318 13.0395 46.6929 11.2656 48.7861 11.4075C50.4606 11.521 50.9502 12.6374 50.9857 13.1814H50.7019C50.0278 12.3831 48.7151 12.525 47.5266 13.004C46.3381 13.4829 44.1917 16.4098 42.1517 18.3611Z" fill="#84CCD8"/>
<path d="M38.4976 16.8356L35.6416 17.1549L35.0562 17.7403L33.4597 20.3301L36.4398 21.5719L43.6241 18.8046C41.1288 19.3368 36.1986 20.0818 36.4398 18.8046C36.6811 17.5274 37.9122 16.9598 38.4976 16.8356Z" fill="#43B3BE"/>
</g>
<mask id="mask2" mask-type="alpha" maskUnits="userSpaceOnUse" x="12" y="17" width="18" height="6">
<path d="M24.005 22.7957C26.3046 22.8943 28.8233 21.9607 29.7952 21.4817L29.0646 17.4079C28.8257 18.2465 27.4792 19.9371 24.005 19.9912C19.6622 20.0588 18.2174 18.3952 15.0931 18.4223C12.5936 18.4439 12.1303 20.334 12.2111 21.2763H12.4042C12.4932 20.7699 13.1352 19.7692 14.9913 19.8185C17.3115 19.8801 18.0095 20.6398 18.8103 21.0915C19.6111 21.5433 21.1305 22.6725 24.005 22.7957Z" fill="#BCBCBC"/>
</mask>
<g mask="url(#mask2)">
<path d="M24.005 22.7957C26.3046 22.8943 28.8233 21.9607 29.7952 21.4817L29.0646 17.4079C28.8257 18.2465 27.4792 19.9371 24.005 19.9912C19.6622 20.0588 18.2174 18.3952 15.0931 18.4223C12.5936 18.4439 12.1303 20.334 12.2111 21.2763H12.4042C12.4932 20.7699 13.1352 19.7692 14.9913 19.8185C17.3115 19.8801 18.0095 20.6398 18.8103 21.0915C19.6111 21.5433 21.1305 22.6725 24.005 22.7957Z" fill="#84CCD8"/>
<path d="M28.0207 20.7378C28.0365 20.2621 26.8909 19.6675 26.3161 19.4296V19.1719L28.3775 16.9124L31.747 17.1304L32.7182 21.154L24.0764 23.6316C25.3846 22.8652 28.0049 21.2135 28.0207 20.7378Z" fill="#43B3BE"/>
</g>
<path d="M27.9562 17.9014C27.996 16.7669 31.1608 16.8465 31.9967 16.8266C33.8875 16.8266 35.7585 17.0853 35.7784 17.8019C35.7984 18.5184 35.261 21.6234 31.9967 21.6234C28.7324 21.6234 27.9164 19.0359 27.9562 17.9014Z" fill="#84CCD8"/>
<path fill-rule="evenodd" clip-rule="evenodd" d="M31.9967 16.3264V16.3266C32.9573 16.3266 33.9385 16.3917 34.6958 16.557C35.0705 16.6388 35.4267 16.7526 35.7028 16.9188C35.9739 17.0819 36.2664 17.3603 36.2782 17.788C36.2906 18.2313 36.1419 19.2861 35.5434 20.2459C34.9243 21.2388 33.8231 22.1234 31.9967 22.1234C30.2127 22.1234 29.0449 21.4071 28.3412 20.4928C27.6563 19.6031 27.4329 18.5557 27.4565 17.8838C27.4762 17.322 27.8916 16.9899 28.2692 16.8074C28.6555 16.6208 29.1427 16.5152 29.6095 16.4507C30.3837 16.3438 31.2327 16.3352 31.7247 16.3303C31.8287 16.3292 31.9167 16.3283 31.9848 16.3267L31.9967 16.3264ZM31.7171 16.8305C30.6144 16.842 27.9924 16.8694 27.9562 17.9014C27.9164 19.0359 28.7324 21.6234 31.9967 21.6234C35.261 21.6234 35.7983 18.5184 35.7784 17.8019C35.7585 17.0853 33.8875 16.8266 31.9967 16.8266C31.9212 16.8284 31.8266 16.8294 31.7171 16.8305Z" fill="#166164"/>
<circle cx="31.8715" cy="18.8296" r="0.891494" fill="#43B3BE"/>
<path fill-rule="evenodd" clip-rule="evenodd" d="M33.2178 18.8037C33.2178 19.541 32.6201 20.1387 31.8828 20.1387C31.1454 20.1387 30.5477 19.541 30.5477 18.8037C30.5477 18.0663 31.1454 17.4686 31.8828 17.4686C32.6201 17.4686 33.2178 18.0663 33.2178 18.8037ZM31.8828 19.6387C32.344 19.6387 32.7178 19.2649 32.7178 18.8037C32.7178 18.3425 32.344 17.9686 31.8828 17.9686C31.4216 17.9686 31.0477 18.3425 31.0477 18.8037C31.0477 19.2649 31.4216 19.6387 31.8828 19.6387Z" fill="#166164"/>
<path d="M30.9146 23.2538C30.9146 23.0743 31.06 22.9289 31.2395 22.9289C31.4189 22.9289 31.5644 23.0743 31.5644 23.2538V46.1386C31.5644 46.318 31.4189 46.4635 31.2395 46.4635C31.06 46.4635 30.9146 46.318 30.9146 46.1386V23.2538Z" fill="white"/>
<path fill-rule="evenodd" clip-rule="evenodd" d="M50.7566 15.0169C51.2122 15.0169 51.5815 14.6475 51.5815 14.1919C51.5815 13.7363 51.2122 13.3669 50.7566 13.3669C50.301 13.3669 49.9316 13.7363 49.9316 14.1919C49.9316 14.6475 50.301 15.0169 50.7566 15.0169ZM50.7566 15.4169C51.4331 15.4169 51.9815 14.8684 51.9815 14.1919C51.9815 13.5154 51.4331 12.9669 50.7566 12.9669C50.0801 12.9669 49.5316 13.5154 49.5316 14.1919C49.5316 14.8684 50.0801 15.4169 50.7566 15.4169Z" fill="#166164"/>
<path fill-rule="evenodd" clip-rule="evenodd" d="M12.4076 23.0872C12.8632 23.0872 13.2325 22.7178 13.2325 22.2622C13.2325 21.8066 12.8632 21.4372 12.4076 21.4372C11.952 21.4372 11.5826 21.8066 11.5826 22.2622C11.5826 22.7178 11.952 23.0872 12.4076 23.0872ZM12.4076 23.4872C13.0841 23.4872 13.6325 22.9387 13.6325 22.2622C13.6325 21.5857 13.0841 21.0372 12.4076 21.0372C11.7311 21.0372 11.1826 21.5857 11.1826 22.2622C11.1826 22.9387 11.7311 23.4872 12.4076 23.4872Z" fill="#166164"/>
<path d="M59.0598 33.7025C59.0598 35.1767 55.4094 37.5442 50.8531 37.5442C46.2968 37.5442 42.5953 35.1767 42.5953 33.7025C42.5953 32.2284 46.2968 33.5196 50.8531 33.5196C55.4094 33.5196 59.0598 32.2284 59.0598 33.7025Z" fill="#84CCD8"/>
<path d="M20.4429 41.9139C20.4429 43.3881 16.7926 45.7556 12.2363 45.7556C7.68002 45.7556 3.97852 43.3881 3.97852 41.9139C3.97852 40.4398 7.68002 41.731 12.2363 41.731C16.7926 41.731 20.4429 40.4397 20.4429 41.9139Z" fill="#84CCD8"/>
<path d="M20.4862 41.6905C20.4862 42.3938 16.7926 42.9639 12.2363 42.9639C7.68004 42.9639 3.98645 42.3938 3.98645 41.6905C3.98645 40.9873 7.68004 40.4172 12.2363 40.4172C16.7926 40.4172 20.4862 40.9873 20.4862 41.6905Z" fill="#43B3BE"/>
<path fill-rule="evenodd" clip-rule="evenodd" d="M20.1126 41.5969C20.1127 41.5969 20.1119 41.5981 20.1097 41.6004C20.1114 41.5981 20.1125 41.5969 20.1126 41.5969ZM19.9769 41.6905C19.9096 41.6544 19.8188 41.6138 19.7007 41.5706C19.3196 41.4316 18.7455 41.2992 18.0088 41.1855C16.5416 40.959 14.5005 40.8172 12.2363 40.8172C9.97206 40.8172 7.93097 40.959 6.46379 41.1855C5.72708 41.2992 5.15299 41.4316 4.77189 41.5706C4.65376 41.6138 4.56302 41.6544 4.49567 41.6905C4.56302 41.7267 4.65376 41.7673 4.77189 41.8104C5.15299 41.9495 5.72708 42.0819 6.46379 42.1956C7.93097 42.4221 9.97206 42.5639 12.2363 42.5639C14.5005 42.5639 16.5416 42.4221 18.0088 42.1956C18.7455 42.0819 19.3196 41.9495 19.7007 41.8104C19.8188 41.7673 19.9096 41.7267 19.9769 41.6905ZM4.36001 41.5969C4.36013 41.5969 4.36122 41.5981 4.36288 41.6004C4.36071 41.5981 4.35988 41.5969 4.36001 41.5969ZM4.36001 41.7841C4.35988 41.7841 4.36071 41.783 4.36288 41.7806C4.36122 41.783 4.36013 41.7841 4.36001 41.7841ZM20.1097 41.7806C20.1119 41.783 20.1127 41.7841 20.1126 41.7841C20.1125 41.7841 20.1114 41.783 20.1097 41.7806ZM12.2363 42.9639C16.7926 42.9639 20.4862 42.3938 20.4862 41.6905C20.4862 40.9873 16.7926 40.4172 12.2363 40.4172C7.68004 40.4172 3.98645 40.9873 3.98645 41.6905C3.98645 42.3938 7.68004 42.9639 12.2363 42.9639Z" fill="#166164"/>
<path d="M59.1296 33.4068C59.1296 34.1101 55.436 34.6802 50.8797 34.6802C46.3235 34.6802 42.6299 34.1101 42.6299 33.4068C42.6299 32.7036 46.3235 32.1335 50.8797 32.1335C55.436 32.1335 59.1296 32.7036 59.1296 33.4068Z" fill="#43B3BE"/>
<path fill-rule="evenodd" clip-rule="evenodd" d="M58.756 33.3132C58.7562 33.3132 58.7553 33.3144 58.7532 33.3167C58.7548 33.3144 58.7559 33.3132 58.756 33.3132ZM58.6204 33.4068C58.553 33.3707 58.4623 33.33 58.3442 33.2869C57.9631 33.1479 57.389 33.0154 56.6522 32.9017C55.1851 32.6753 53.144 32.5335 50.8797 32.5335C48.6155 32.5335 46.5744 32.6753 45.1072 32.9017C44.3705 33.0154 43.7964 33.1479 43.4153 33.2869C43.2972 33.33 43.2064 33.3707 43.1391 33.4068C43.2064 33.443 43.2972 33.4836 43.4153 33.5267C43.7964 33.6658 44.3705 33.7982 45.1072 33.9119C46.5744 34.1383 48.6155 34.2802 50.8797 34.2802C53.144 34.2802 55.1851 34.1383 56.6522 33.9119C57.389 33.7982 57.9631 33.6658 58.3442 33.5267C58.4623 33.4836 58.553 33.443 58.6204 33.4068ZM43.0034 33.3132C43.0036 33.3132 43.0047 33.3144 43.0063 33.3167C43.0041 33.3144 43.0033 33.3132 43.0034 33.3132ZM43.0034 33.5004C43.0033 33.5004 43.0041 33.4992 43.0063 33.4969C43.0047 33.4993 43.0036 33.5004 43.0034 33.5004ZM58.7532 33.4969C58.7553 33.4992 58.7562 33.5004 58.756 33.5004C58.7559 33.5004 58.7548 33.4993 58.7532 33.4969ZM50.8797 34.6802C55.436 34.6802 59.1296 34.1101 59.1296 33.4068C59.1296 32.7036 55.436 32.1335 50.8797 32.1335C46.3235 32.1335 42.6299 32.7036 42.6299 33.4068C42.6299 34.1101 46.3235 34.6802 50.8797 34.6802Z" fill="#166164"/>
</g>
</svg>
