<svg width="250" height="250" viewBox="0 0 250 250" fill="none" xmlns="http://www.w3.org/2000/svg">
<mask id="mask0" mask-type="alpha" maskUnits="userSpaceOnUse" x="0" y="0" width="250" height="250">
<circle cx="125" cy="125" r="125" fill="#C4C4C4"/>
</mask>
<g mask="url(#mask0)">
<circle cx="125" cy="125" r="125" fill="#148292"/>
<path d="M179.595 56.7942C177.987 55.2713 177.91 53.0443 178.073 52.1211H188.795C197.15 55.7587 211.913 64.5778 204.13 70.754C194.4 78.4741 181.604 58.6978 179.595 56.7942Z" fill="#43B3BE"/>
<path d="M178.035 52.1531C185.776 51.0296 199.877 61.7091 204.063 70.901L240.649 47.9667L214.984 23.8494L178.035 52.1531Z" fill="#84CCD8"/>
<path d="M188.164 76.7081C189.714 77.1021 192.58 75.7286 193.818 74.9926C194.057 73.8648 194.53 71.5838 194.517 71.4821C194.505 71.3805 193.686 70.5397 193.278 70.132C190.928 72.1599 186.613 76.3142 188.164 76.7081Z" fill="#BED0DC"/>
<path d="M188.868 76.5601C189.577 75.6749 191.923 72.664 193.008 71.2692L190.198 62.1211L182.758 56.9659L176.221 56.1687C174.75 56.2927 170.694 56.7002 166.229 57.3379C160.649 58.1351 156.876 61.6959 152.996 65.0972C149.116 68.4986 136.638 74.347 134.159 75.0552C131.681 75.7634 128.317 77.888 130.928 79.747C133.54 81.6061 137.878 80.3225 139.869 79.4372C141.463 78.729 144.192 77.4306 145.358 76.87C146.361 78.2126 148.589 81.1723 149.474 82.27C150.581 83.6422 155.229 88.2455 156.557 87.4488C157.619 86.8114 158.032 85.4127 158.106 84.793C158.849 85.0763 160.481 85.2061 161.204 85.2357C161.868 85.9586 163.674 87.7852 165.586 89.3078C167.957 91.1961 170.024 89.2506 170.791 88.5282L170.809 88.5111C171.562 87.8029 171.606 86.8291 174.129 85.5898C176.652 84.3504 181.477 84.3061 183.601 82.5356C185.726 80.7651 187.983 77.6667 188.868 76.5601Z" fill="#E9F3FD"/>
<path d="M193.793 75.0186C194.861 68.7002 181.517 59.5015 176.08 56.1173L180.994 52.229C192.746 53.6547 200.544 63.8038 202.974 68.7002C199.647 72.4588 195.467 74.4786 193.793 75.0186Z" fill="#EDF6FD"/>
<path d="M150.463 75.2488C149.301 76.535 146.418 76.9603 145.121 77.0122C149.436 75.477 154.509 69.4918 157.465 67.106C155.632 68.8694 151.936 72.8941 151.812 74.8857C151.656 77.3752 154.457 78.8274 155.079 78.9312C155.577 79.0142 158.433 76.7529 159.799 75.6118C158.744 76.6145 156.511 78.9001 156.013 80.0203C155.515 81.1406 157.154 83.6681 158.035 84.7919C156.127 84.0035 155.269 81.2824 155.079 80.0203C151.511 79.066 150.515 76.4417 150.463 75.2488Z" fill="#43B3BE"/>
<path d="M161.978 85.896L161.101 85.3424C162.652 84.1614 164.762 82.1745 165.623 81.3286C164.515 83.5431 162.732 85.2963 161.978 85.896Z" fill="#43B3BE"/>
<path d="M191.047 73.9429C187.589 66.6316 179.644 58.9579 176.103 56.035C187.55 62.8761 192.152 69.0822 193.021 71.3302C193.021 71.4872 191.705 73.1374 191.047 73.9429Z" fill="#43B3BE"/>
<circle cx="211.839" cy="57.795" r="3.55088" fill="#EDF6FD"/>
<circle cx="225.08" cy="50.6932" r="3.55088" fill="#EDF6FD"/>
<path d="M65.3398 140.42C69.0831 131.794 80.5978 128.824 85.8873 128.417L112.195 125.957C123.723 130.778 147.08 143.733 148.283 156.987C149.786 173.554 141.674 185.002 142.714 214.274C143.546 237.691 147.453 257.308 149.302 264.189C120.604 266.226 63.2866 269.078 63.597 264.189C63.9851 258.078 71.0005 241.371 75.7545 235.286C79.5577 230.418 82.0932 219.249 82.8855 214.274L86.8789 200.867C85.9988 197.779 83.7696 192.219 81.8927 194.683C80.0158 197.146 80.1561 205.6 80.4608 209.519C70.9892 212.491 51.9873 217.801 51.7524 215.27C51.4589 212.106 59.8469 189.042 62.0848 177.039C64.3226 165.036 60.6607 151.202 65.3398 140.42Z" fill="#81CAD6"/>
<path d="M75.3084 235.833C75.3084 235.833 80.219 226.678 80.8865 224.626C81.554 222.573 94.2283 223.423 94.2283 223.423L111.724 226.678C111.453 231.019 110.097 239.332 106.842 237.868C102.773 236.037 97.4834 237.257 90.1595 237.868C84.3005 238.356 77.8175 236.715 75.3084 235.833Z" fill="#3BA8B3"/>
<path d="M137.358 198.604C138.334 191.443 142.105 174.598 143.868 167.07L137.358 174.191L131.051 196.569L121.693 238.071L110.91 264.315L125.558 266.553C126.643 258.822 129.017 242.303 129.83 238.071C130.848 232.782 136.137 207.555 137.358 198.604Z" fill="#43B3BE"/>
<path d="M85.3295 199.184C87.618 201.94 92.0043 208.741 93.9114 211.796H96.7721L88.9053 199.769C91.1375 200.354 96.8241 201.641 101.713 202.109C106.602 202.577 111.335 201.264 113.091 200.549L115.756 194.437C114.868 194.177 112.142 193.41 108.345 192.422C103.599 191.187 93.1313 191.837 85.9146 190.927C80.1413 190.199 76.2707 185.119 75.0571 182.67C75.3172 184.49 82.4688 195.738 85.3295 199.184Z" fill="#43B3BE"/>
<path d="M113.352 184.159C113.352 180.579 114.979 149.575 115.793 134.52L118.234 132.892C118.777 130.451 121.774 126.016 129.424 127.806C149.971 132.282 148.343 155.678 147.937 159.95C147.53 164.222 137.744 179.392 135.12 198.197C133.899 206.945 130.237 223.83 129.424 227.289C128.773 230.056 118.438 253.804 113.352 265.332H99.111C101.823 249.125 107.574 215.245 108.876 209.386C110.504 202.062 113.352 188.635 113.352 184.159Z" fill="#84CCD8"/>
<path d="M73.7362 168.158C75.3958 160.216 75.7496 150.044 75.719 145.951C75.719 159.9 68.6239 172.529 70.4762 180.902C71.958 187.599 77.9593 194.954 80.7747 197.794L82.0165 194.539L81.9426 194.421C77.7223 187.684 71.6737 178.028 73.7362 168.158Z" fill="#36ABB5"/>
<path d="M101.452 228.357C104.576 221.698 104.329 213.729 103.815 210.578C100.595 209.893 93.3739 208.296 90.2497 207.392C86.3444 206.261 78.2254 202.459 67.7428 201.842C57.2602 201.226 46.0581 214.38 54.9992 221.369C63.9403 228.357 74.0118 227.329 83.8778 226.61C91.7706 226.034 98.8824 227.535 101.452 228.357Z" fill="url(#paint0_linear)"/>
<path d="M120.898 237.883C117.772 237.655 109.652 232.106 105.982 229.359C106.787 227.655 108.51 223.308 108.965 219.557C109.42 215.807 108.492 212.123 107.971 210.75C109.225 210.111 112.815 208.804 117.133 208.69C122.531 208.548 124.449 211.318 125.088 212.313C125.6 213.108 126.627 214.775 127.077 215.509C129.492 216.006 134.038 218.137 133.825 220.836C133.612 223.535 131.126 224.174 131.126 224.742C131.694 226.376 130.486 228.72 129.776 229.359C129.208 233.834 127.077 234.118 127.077 234.473C125.585 237.598 124.804 238.167 120.898 237.883Z" fill="#E9F3FD"/>
<path d="M101.173 228.353C103.307 227.397 103.84 216.062 103.84 210.513H108.254C108.469 210.881 108.99 212.555 109.358 216.307C109.505 223.884 107.212 228.231 106.047 229.457L101.173 228.353Z" fill="white"/>
<path d="M127.03 215.501C126.915 215.492 121.939 214.207 120.045 213.662C121.011 213.321 124.594 213.732 126.157 214.016C126.654 214.56 127.146 215.51 127.03 215.501Z" fill="#43B3BE"/>
<ellipse cx="93.5779" cy="156.601" rx="2.69731" ry="3.96661" transform="rotate(6.98253 93.5779 156.601)" fill="#E9F3FD"/>
<ellipse cx="92.0054" cy="176.137" rx="2.61437" ry="3.81675" transform="rotate(2.40663 92.0054 176.137)" fill="#E9F3FD"/>
<path d="M75.2396 131.319C69.7309 133.192 66.4716 138.297 65.5305 140.615L64.773 135.52L65.8748 121.059L70.2129 113.554L86.6013 122.918L86.0505 128.84C84.7421 128.886 80.7483 129.446 75.2396 131.319Z" fill="#0D454E"/>
<path d="M81.8914 135.549C82.4263 133.517 84.2092 128.106 85.0337 125.654C85.9252 122.913 87.922 118.969 88.7778 125.12C89.8475 132.808 93.5247 136.619 96.6001 136.82C99.6756 137.02 102.684 135.148 106.094 131.872C108.822 129.251 114.674 122 117.259 118.701L118.864 119.504L122.608 123.782C121.962 127.059 119.907 135.001 116.858 140.564C113.047 147.517 110.373 147.116 106.963 146.447C103.553 145.779 101.481 140.363 97.2019 140.163C92.9229 139.962 90.7167 145.177 85.5017 144.174C80.2868 143.171 81.2228 138.09 81.8914 135.549Z" fill="#E9F3FD"/>
<path d="M96.9339 136.843C91.2346 136.647 89.1002 128.518 88.7454 124.479L96.9339 111.213L106.597 100.158L112.902 123.087C109.954 127.754 102.633 137.04 96.9339 136.843Z" fill="#84CCD8"/>
<path d="M89.5495 127.327L88.9464 125.431L91.7033 119.056L101.611 105.444C104.598 102.859 109.778 99.9814 106.608 109.148C103.437 118.315 93.9146 125.087 89.5495 127.327Z" fill="#198698"/>
<path d="M126.501 103.787C124.055 98.8048 118.462 86.0849 115.97 80.3477L112.891 98.4382C117.208 108.251 126.543 127.837 129.343 127.672C132.142 127.508 137.9 131.534 140.429 133.567C139.749 125.981 129.558 110.015 126.501 103.787Z" fill="#0D454E"/>
<path d="M133.061 128.846C132.59 125.073 124.111 107.031 119.931 98.4819L118.659 101.726C121.551 110.288 127.418 127.414 127.755 127.414C128.092 127.414 131.433 128.369 133.061 128.846Z" fill="#0D2528"/>
<path d="M78.4776 123.433C69.846 119.117 65.3994 107.903 64.2551 102.835L60.3316 91.31L61.6803 85.6701L62.9064 75.9841L68.0559 68.9954L95.8879 75.9841L106.31 104.061C104.925 107.646 101.154 113.832 97.0341 118.638C91.8845 124.646 89.2671 128.828 78.4776 123.433Z" fill="#81CAD6"/>
<path d="M68.8387 78.4096C67.4142 87.7377 63.8798 91.6779 62.2907 92.4821L61.1993 88.1742L66.8858 72.6084C70.2377 75.1327 77.0212 80.1831 77.3396 80.1902C73.5716 80.1443 70.1023 78.984 68.8387 78.4096Z" fill="#198698"/>
<path d="M67.3972 75.0955C67.3972 80.7612 63.8274 87.187 62.0425 89.6916C62.5208 90.6216 64.187 97.3027 64.9603 100.527C65.3779 102.17 66.3019 105.918 66.6575 107.76C67.0131 109.603 69.3635 114.187 70.4942 116.249C70.3904 117.91 70.0582 122.322 69.5599 126.683C68.9369 132.133 64.2651 144.903 63.6422 150.665C63.1439 155.274 64.5766 163.486 65.3552 167.016C51.6511 145.214 59.5933 121.232 60.5276 113.601C61.462 105.971 58.036 100.676 54.7657 88.5292C51.4954 76.3824 58.6589 64.7028 64.2651 58.4737C68.7501 53.4904 75.3737 52.2445 78.1249 52.2445C82.9525 50.2201 95.4107 47.7284 104.91 58.4737C112.51 67.0699 117.213 79.6008 118.614 84.7917C119.081 89.4191 120.203 99.3857 120.95 102.233C121.884 105.793 129.048 121.232 129.827 124.658C130.605 128.084 129.671 138.518 126.712 145.681C124.345 151.412 115.448 158.555 111.295 161.41C112.645 156.946 115.313 146.803 115.188 141.944C115.032 135.87 110.983 125.125 108.959 121.232C106.935 117.339 106.522 110.42 103.671 98.6738C100.821 86.9279 90.1118 84.855 81.0433 82.4368C73.7884 80.5021 68.9231 76.7365 67.3972 75.0955Z" fill="#26656F"/>
<path d="M85.2474 113.95C87.5458 113.812 89.6604 115.237 89.7523 115.789C89.7523 118.133 86.6724 116.708 85.2474 117.168C83.8223 117.628 82.3513 119.972 81.294 117.95C80.2367 115.927 82.9489 114.088 85.2474 113.95Z" fill="#26656E"/>
<path d="M74.0387 109.473C75.7182 107.251 76.0477 103.716 76.0026 102.226C76.8152 106.696 75.0545 108.728 75.1899 109.879C75.2983 110.8 77.2668 112.475 78.2374 113.197C75.0545 111.978 73.7 110.082 74.0387 109.473Z" fill="#26656E"/>
<path d="M71.7248 91.2169C72.6139 93.6373 67.1145 96.6711 64.2536 97.8854L63.8214 96.1565C64.3771 95.8684 65.7602 95.0822 66.8469 94.2424C68.2053 93.1928 70.6134 88.1914 71.7248 91.2169Z" fill="#26656E"/>
<path d="M88.8 98.0071C85.5136 98.4037 82.756 96.5197 81.788 95.5281C84.4512 99.7778 89.1306 99.9431 91.1374 99.4945C91.9165 99.5417 93.319 99.6078 92.6957 99.4945C92.0724 99.3812 92.4359 98.8334 92.6957 98.5737C93.8761 98.5265 95.5867 98.5845 95.6705 98.5737C96.2498 98.4991 93.4748 97.4404 94.0414 97.3696C94.4947 97.313 95.6941 96.6849 96.2371 96.378C95.576 96.4724 94.2964 96.6047 94.4664 96.378C94.6364 96.1514 94.9622 95.1975 95.1038 94.7489C94.3719 95.6697 92.0865 97.6104 88.8 98.0071Z" fill="#26656E"/>
<path d="M68.9683 101.86C66.8935 102.566 65.2713 100.94 64.7195 100.039C64.7195 100.657 65.7495 102.283 66.2645 103.019L66.8163 102.743L67.3681 103.957L67.975 103.019L68.9683 104.288V103.515H69.4649C72.5108 102.368 72.8308 98.8435 72.6101 97.2249C72.2606 98.4756 71.043 101.154 68.9683 101.86Z" fill="#26656E"/>
<path d="M90 90C92.8 88.8 94.1666 87.8333 94.5 87.5C92.1666 88 87 88.9 85 88.5C82.5 88 77.5 86.5 78.5 89C79.5 91.5 86.5 91.5 90 90Z" fill="#26656E"/>
</g>
<defs>
<linearGradient id="paint0_linear" x1="87.2563" y1="228.357" x2="88.1282" y2="215.089" gradientUnits="userSpaceOnUse">
<stop stop-color="#5DAEBB"/>
<stop offset="1" stop-color="#7AC8D4"/>
</linearGradient>
</defs>
</svg>
