<svg width="64" height="64" viewBox="0 0 64 64" fill="none" xmlns="http://www.w3.org/2000/svg">
<mask id="mask0" mask-type="alpha" maskUnits="userSpaceOnUse" x="0" y="0" width="64" height="64">
<circle cx="32" cy="32" r="32" fill="#148292"/>
</mask>
<g mask="url(#mask0)">
<circle cx="32" cy="32" r="32" fill="#148292"/>
<path d="M41.1184 60.3059L44.1207 63.4118C50.3325 61.5483 61.7414 57.697 57.6831 57.2C53.6247 56.7031 44.949 59.0636 41.1184 60.3059Z" fill="#43B3BE"/>
<path d="M24.0362 59.0636L16.9963 62.0659C10.3704 59.5122 -0.852132 54.5704 7.26453 55.233C15.3812 55.8956 21.8276 58.0628 24.0362 59.0636Z" fill="#43B3BE"/>
<path d="M33.5608 55.233C24.1189 50.5121 10.1633 50.1601 4.36573 50.5742L0.845703 45.7083C2.84726 45.6738 11.5713 45.6255 30.455 45.7083C49.3386 45.7912 58.6148 48.9868 60.8925 50.5742C53.604 48.6693 39.6345 52.8863 33.5608 55.233Z" fill="#43B3BE"/>
<ellipse cx="32.6888" cy="59.9903" rx="6.92955" ry="1.30823" fill="#0C3C3C"/>
<mask id="mask1" mask-type="alpha" maskUnits="userSpaceOnUse" x="31" y="3" width="6" height="58">
<path d="M36.3033 4.19192C34.3738 3.29129 32.3993 3.81666 31.6533 4.19192L31.514 60.0146C31.6458 60.1524 32.0856 60.4352 32.7902 60.4639C33.4948 60.4927 33.8507 60.2482 33.9406 60.1224L36.3033 4.19192Z" fill="#166164"/>
</mask>
<g mask="url(#mask1)">
<path d="M36.3033 4.19192C34.3738 3.29129 32.3993 3.81666 31.6533 4.19192L31.514 60.0146C31.6458 60.1524 32.0856 60.4352 32.7902 60.4639C33.4948 60.4927 33.8507 60.2482 33.9406 60.1224L36.3033 4.19192Z" fill="#166164"/>
<path d="M35.8566 23.9332C35.2721 23.0122 33.4876 21.9996 32.6683 21.6084L35.3251 20.4793C35.7458 22.0144 36.441 24.8542 35.8566 23.9332Z" fill="#0C3C3C"/>
<path d="M35.2587 33.1436C33.8948 31.6735 32.3435 31.0698 31.7384 30.9517L35.2587 28.8705C35.827 30.9074 36.6226 34.6137 35.2587 33.1436Z" fill="#0C3C3C"/>
<path d="M31.2734 45.1437L31.0299 41.9112C33.1701 42.0883 36.999 42.509 35.1923 42.7747C33.3856 43.0404 31.827 44.4647 31.2734 45.1437Z" fill="#0C3C3C"/>
<path d="M31.634 14.5609V11.9208C33.5857 12.0344 37.2378 12.2615 36.2329 12.2615C35.228 12.2615 32.7483 13.7944 31.634 14.5609Z" fill="#0C3C3C"/>
</g>
<path d="M21.2638 39.947L21.1047 39.3748H22.5289L39.6639 42.711L42.771 41.5811L43.073 42.0389L40.1704 43.9967L21.2638 39.947Z" fill="#43B3BE"/>
<path d="M41.1233 38.7433L42.7815 41.5929L39.9814 43.547L21.0825 39.3821L23.0941 37.4832L22.1607 34.5542L41.1233 38.7433Z" fill="#84CCD8"/>
<path d="M20.9016 31.9746L20.6562 31.582L23.8315 32.73L42.5522 27.3259L41.1324 25.7295L42.3556 23.0845L42.7737 23.5445L41.6772 25.8022L43.4414 27.1602L43.84 27.7322L23.8315 33.3635L20.9016 31.9746Z" fill="#43B3BE"/>
<path d="M41.3787 25.461L43.4683 27.1678L23.736 32.9536L20.6503 31.579L22.4456 28.7737L42.3821 23.0508L41.3787 25.461Z" fill="#84CCD8"/>
<path d="M49.8064 19.3617L49.4298 18.8138L45.5334 21.0078L21.4722 20.737L16.1484 21.0078L16.5267 21.4867L46.17 22.0017L49.8064 19.3617Z" fill="#43B3BE"/>
<path d="M18.7039 18.5188L16.3416 15.6504L45.9709 16.0216L49.4468 18.8226L45.9709 21.4885L16.1392 21.0161L18.7039 18.5188Z" fill="#84CCD8"/>
<path d="M49.6466 8.33786L49.1939 7.58331L48.7563 7.68895L45.8286 9.4244L46.7794 10.8882L49.6466 8.33786Z" fill="#43B3BE"/>
<path d="M16.5509 7.34867L16.5016 6.9957L48.5469 13.2461L48.9506 13.8649L19.9739 10.7963L16.5509 7.34867Z" fill="#43B3BE"/>
<path d="M19.7493 10.2288L16.5 7L20.0923 4.39678L49.2522 7.5333L46.6057 9.83668L48.566 13.2673L19.7493 10.2288Z" fill="#84CCD8"/>
</g>
</svg>
