<svg width="64" height="64" viewBox="0 0 64 64" fill="none" xmlns="http://www.w3.org/2000/svg">
<mask id="mask0" mask-type="alpha" maskUnits="userSpaceOnUse" x="0" y="0" width="64" height="64">
<path d="M64 32C64 49.6731 49.6731 64 32 64C14.3269 64 0 49.6731 0 32C0 14.3269 14.3269 0 32 0C49.6731 0 64 14.3269 64 32Z" fill="#148292"/>
</mask>
<g mask="url(#mask0)">
<path d="M64 32C64 49.6731 49.6731 64 32 64C14.3269 64 0 49.6731 0 32C0 14.3269 14.3269 0 32 0C49.6731 0 64 14.3269 64 32Z" fill="#148292"/>
<path d="M42.1581 23.1817L37.8789 20.3069C52.8601 20.3069 57.033 31.0247 55.7591 39.4584C54.4853 47.8921 46.8995 51.4244 42.6994 52.2411C39.3393 52.8944 35.3464 51.674 33.7699 50.9821L37.8789 49.7845L43.55 46.458L37.4956 30.2244L37.8789 27.536L42.1581 23.1817Z" fill="#43B3BE"/>
<path d="M39.1581 22.1817L38.6326 20.3424C49.1893 21.432 54.2554 30.3219 52.9816 38.7556C51.7077 47.1893 43.8995 50.4244 39.6994 51.2411C36.3393 51.8944 32.3464 50.674 30.7699 49.9821L34.8789 48.7845L40.55 45.458L34.4956 29.2244L34.8789 26.536L39.1581 22.1817Z" fill="#E9F3FD"/>
<path d="M38.3777 22.2256L37.8522 20.3863C48.4089 21.476 53.475 30.3658 52.2012 38.7995C50.9274 47.2332 43.1191 50.4683 38.919 51.285C35.5589 51.9384 31.566 50.7179 29.9895 50.026L34.0985 48.8285L39.7696 45.5019L33.7152 29.2683L34.0985 26.5799L38.3777 22.2256Z" fill="#84CCD8"/>
<path d="M35.4498 25.1911L36.6134 23.9148C37.777 23.9148 43.1449 24.2526 46.1478 28.2691C49.1508 32.2855 49.2634 34.5002 48.6628 38.4792C48.0622 42.4581 44.7214 45.1607 42.5067 46.5872C40.735 47.7283 37.0639 48.0386 35.4498 48.0511L36.8762 47.0751C37.8396 47.1627 40.4422 46.9025 43.1449 45.1607C46.5232 42.9836 48.0247 39.4927 47.9872 35.6639C47.9496 31.8351 45.8475 29.2826 43.1449 26.9553C40.9827 25.0935 37.114 25.0034 35.4498 25.1911Z" fill="#43B3BE"/>
<path d="M10.6302 27.3153C12.4094 22.6294 17.636 19.6621 20.027 18.7642L21.8704 19.7826V20.8356L22.1337 27.3153L22.4345 30.3504L26.7218 33.5847L31.9869 40.5045L30.3698 44.3405L26.7218 47.838C25.9948 48.1264 24.4729 48.7406 24.2021 48.8911C23.8636 49.0791 16.7934 48.703 12.9198 43.4379C9.04614 38.1728 8.40631 33.1726 10.6302 27.3153Z" fill="#84CCD8"/>
<path d="M15.8155 25.5366C17.5605 23.4907 19.8521 22.528 20.7797 22.3023L20.5917 23.3929C18.26 24.634 13.7245 28.5527 14.2359 34.2992C14.8753 41.4823 20.5917 44.1901 24.3524 44.4533C27.3611 44.6639 29.5423 43.6886 30.2569 43.1747L29.7304 45.544C29.0534 45.7445 26.4284 46.0855 24.3525 46.1457C21.7575 46.2209 15.8155 44.4909 13.4086 38.925C11.0017 33.359 13.6343 28.0939 15.8155 25.5366Z" fill="#E9F3FD"/>
<path d="M15.8156 25.5366C17.5606 23.4907 19.8522 22.528 20.7798 22.3023L20.5918 23.3929C18.2601 24.634 13.7246 28.5527 14.236 34.2992C14.8754 41.4823 20.5918 44.1901 24.3525 44.4533C27.3612 44.6639 29.5424 43.6886 30.257 43.1747L29.6552 44.9422C28.9783 45.1428 27.1054 45.559 25.0295 45.6192C22.4345 45.6944 16.3797 44.3405 13.9728 38.7745C11.5659 33.2086 13.6344 28.0939 15.8156 25.5366Z" fill="#43B3BE"/>
<path d="M27.3871 46.463L31.105 41.1397L34.6539 40.4637L30.429 46.463L26.9224 48.5332L24.0072 48.9135L27.3871 46.463Z" fill="#26656F"/>
<path d="M31.1895 41.1819L26.8379 36.0698L30.1755 35.0135L34.6962 40.4637L31.1895 41.1819Z" fill="#43B3BE"/>
<path d="M26.8801 36.112L21.5568 30.8732L24.8944 30.1127L30.3445 35.1825L26.8801 36.112Z" fill="#26656F"/>
<path d="M21.5145 30.9154L18.8105 25.761L22.2327 24.9583L25.1056 30.1972L21.5145 30.9154Z" fill="#43B3BE"/>
<path d="M18.8105 25.8878L21.1343 20.0997L24.6409 19.2547L22.3595 25.2118L18.8105 25.8878Z" fill="#26656F"/>
<path d="M21.1343 20.0574L19.9935 18.7899L23.4579 17.945L24.7254 19.2969L21.1343 20.0574Z" fill="#43B3BE"/>
<path d="M26.0273 27.144L27.3726 25.4261L27.9885 26.0744L28.9285 27.144L30.3547 27.5492L28.6368 28.9917L27.016 28.6027L26.0273 27.144Z" fill="#84CCD8"/>
<path d="M29.7291 29.0101H28.5898L29.7898 27.6889L30.9048 27.5677L29.7291 29.0101Z" fill="#26656F"/>
<path d="M29.8013 27.6969L28.2614 27.1639L29.1853 26.773L30.8909 27.5666L29.8013 27.6969Z" fill="#43B3BE"/>
<path d="M28.2488 27.1816L27.3629 25.4279L28.4838 25.1206L29.2069 26.7838L28.2488 27.1816Z" fill="#26656F"/>
<path d="M40.8623 13.5757L38.7637 17.8881L43.996 15.9044L40.8623 13.5757Z" fill="#84CCD8"/>
<path d="M39.2811 19.268L38.7062 17.8881L43.9672 15.8756L44.5422 17.4568L39.2811 19.268Z" fill="#43B3BE"/>
<path d="M29.5 12L28.5 -0.5L33.5 -2L33 12H36.5L31 21.5L26 12H29.5Z" fill="#84CCD8"/>
<path d="M20.4521 12.1384L18.4412 13.94L21.2063 15.4064L22.589 14.2751L20.4521 12.1384Z" fill="#84CCD8"/>
<path d="M21.5833 16.8309L21.2063 15.3645L18.3992 13.8981L18.6925 15.3645L21.5833 16.8309Z" fill="#43B3BE"/>
<path d="M21.5807 16.7395L21.2196 15.3578L22.5699 14.1174L22.8682 15.4677L21.5807 16.7395Z" fill="#26656F"/>
<ellipse cx="32.3727" cy="54.8708" rx="11.5446" ry="1.6203" fill="#0D454E"/>
</g>
</svg>
