<svg width="40" height="40" viewBox="0 0 40 40" fill="none" xmlns="http://www.w3.org/2000/svg">
<g clip-path="url(#clip0)">
<circle cx="20" cy="21" r="16" fill="#0E7B8B"/>
<path d="M11.2353 14.7727L13.9474 12.6467C13.6967 12.1213 13.6235 11.508 13.7842 10.9012C14.1439 9.54291 15.5366 8.73338 16.8949 9.09301L18.1199 9.41742C17.8974 8.51098 17.1416 7.87118 16.2641 7.87118C15.51 7.87118 14.9146 7.87118 14.3201 7.87118C13.6727 8.63976 12.758 9.17615 11.7202 9.33428L11.9705 10.1923L12.56 9.93628L11.1294 11.0577L9.8495 6.66969C9.6184 5.87731 8.78853 5.42233 7.99631 5.6535C7.20393 5.88459 6.74895 6.71431 6.98012 7.50669L8.87848 14.0151C9.17626 15.0358 10.4081 15.4212 11.2353 14.7727Z" fill="white"/>
<path d="M19.1379 15.0005L15.5923 14.0615C14.8971 13.8774 14.3463 13.4224 14.0217 12.8403L11.8828 15.6485C11.3767 16.313 10.5647 16.607 9.7939 16.4839L8.11489 25.6601C8.01445 26.2089 8.40312 26.7168 8.9165 26.7168H10.2072L9.45767 29.5463C9.42237 29.6795 9.40162 29.8163 9.39575 29.954L9.05264 38.0088C9.00778 39.0624 9.82552 39.953 10.8792 39.9979C10.9069 39.9992 10.9344 39.9997 10.9619 39.9997C11.979 39.9996 12.8245 39.1973 12.8683 38.1714L13.2026 30.3238L14.1582 26.7168H14.8844V30.6062C14.8844 30.7543 14.9016 30.9019 14.9357 31.0461L16.7073 38.53C16.9499 39.5547 17.9777 40.1917 19.0053 39.9484C20.0316 39.7054 20.6665 38.6766 20.4236 37.6504L18.7033 30.3834V26.7169H20.2867C20.7991 26.7169 21.1885 26.2078 21.0883 25.6602L19.1379 15.0005Z" fill="white"/>
<path d="M5.20988 4.67168C4.48537 5.067 4.2185 5.97485 4.61383 6.69944L6.84247 10.7838L5.97243 7.80056C5.67284 6.77357 6.05087 5.71025 6.84341 5.08736C6.84466 4.9953 6.84912 4.90402 6.85617 4.81345C6.40001 4.45115 5.7534 4.37514 5.20988 4.67168Z" fill="white"/>
<path d="M10.8572 6.37582L11.4539 8.42158C13.0988 8.23551 14.3772 6.84004 14.3772 5.14545C14.3772 3.32396 12.9006 1.84747 11.0792 1.84747C9.43895 1.84747 8.07894 3.04504 7.82452 4.61344C9.1356 4.29968 10.4756 5.06756 10.8572 6.37582Z" fill="white"/>
<path d="M35.4673 37.4766L31.933 27.0548C31.6585 21.2298 31.7217 24.7902 31.7248 10.6353C31.7248 9.31298 30.6529 8.24113 29.3307 8.24113H25.0612C23.7389 8.24113 22.6671 9.31298 22.6671 10.6353V10.6711L26.0327 10.1534L22.5553 11.7273L16.6262 10.1573C15.8285 9.94598 15.0102 10.4215 14.7989 11.2194C14.5876 12.0173 15.0632 12.8354 15.861 13.0467L22.3044 14.7529C22.6361 14.8408 22.9891 14.8119 23.3032 14.6696L27.2653 12.8764L23.736 15.626C23.4204 15.8719 23.0351 15.9662 22.6671 15.9206V22.6832L21.3201 29.2711C21.2944 29.3972 21.2814 29.5256 21.2815 29.6544L21.285 38.0906C21.2855 39.145 22.1402 39.9994 23.1946 39.9994H23.1953C24.25 39.9989 25.1046 39.1437 25.1041 38.089L25.1007 29.8464L26.517 22.9188H27.9192C27.9192 22.9484 27.9197 22.978 27.9211 23.0078L28.1308 27.5018C28.139 27.6804 28.1724 27.8569 28.2299 28.0262L31.8508 38.7031C32.1205 39.4986 32.8632 39.9998 33.659 39.9998C33.8623 39.9998 34.0692 39.967 34.2724 39.8981C35.271 39.5596 35.8061 38.4754 35.4673 37.4766Z" fill="white"/>
<path d="M27.1773 7.08819C29.1346 7.08819 30.7214 5.50144 30.7214 3.54409C30.7214 1.58675 29.1346 0 27.1773 0C25.2199 0 23.6332 1.58675 23.6332 3.54409C23.6332 5.50144 25.2199 7.08819 27.1773 7.08819Z" fill="white"/>
</g>
<defs>
<clipPath id="clip0">
<rect width="40" height="40" fill="white"/>
</clipPath>
</defs>
</svg>
