<svg width="36" height="52" viewBox="0 0 36 52" fill="none" xmlns="http://www.w3.org/2000/svg">
<g clip-path="url(#clip0)">
<path d="M25.875 16H10.125C8.26102 16 6.75 17.511 6.75 19.375V48.625C6.75 50.489 8.26102 52 10.125 52H25.875C27.739 52 29.25 50.489 29.25 48.625V19.375C29.25 17.511 27.739 16 25.875 16ZM27 48.625C27 49.2464 26.4964 49.75 25.875 49.75H10.125C9.50365 49.75 9 49.2464 9 48.625V43H27V48.625ZM27 40.75H9V19.375C9 18.7536 9.50365 18.25 10.125 18.25H25.875C26.4964 18.25 27 18.7536 27 19.375V40.75Z" fill="white"/>
<path d="M16.875 46.375C16.875 46.9963 17.3787 47.5 18 47.5C18.6213 47.5 19.125 46.9963 19.125 46.375C19.125 45.7537 18.6213 45.25 18 45.25C17.3787 45.25 16.875 45.7537 16.875 46.375Z" fill="white"/>
<path d="M24.75 20.5H11.25V38.5H24.75V20.5Z" fill="#750A11"/>
<path d="M13.486 11.007C13.0247 11.4683 13.0247 12.2171 13.486 12.6784C13.9473 13.1397 14.6961 13.1397 15.1573 12.6784C17.0008 10.8349 19.9992 10.8349 21.8427 12.6784C22.304 13.1397 23.0528 13.1397 23.5141 12.6784C23.9754 12.2171 23.9754 11.4683 23.5141 11.007C20.7497 8.24262 16.2504 8.24262 13.486 11.007Z" fill="white"/>
<path d="M10.1433 7.66433C9.682 8.12562 9.682 8.87438 10.1433 9.33567C10.6046 9.79696 11.3533 9.79696 11.8146 9.33567C15.5016 5.64869 21.4984 5.64869 25.1854 9.33567C25.6467 9.79696 26.3954 9.79696 26.8567 9.33567C27.318 8.87438 27.318 8.12562 26.8567 7.66433C22.2488 3.05644 14.7512 3.05644 10.1433 7.66433Z" fill="white"/>
</g>
<defs>
<clipPath id="clip0">
<rect width="36" height="52" fill="white"/>
</clipPath>
</defs>
</svg>
