<svg width="36" height="36" viewBox="0 0 36 36" fill="none" xmlns="http://www.w3.org/2000/svg">
<circle cx="18" cy="18" r="17.5" fill="#FBFBFB" stroke="#E1E1E1"/>
<g clip-path="url(#clip0)">
<path d="M20.828 15.1716C20.633 14.9766 20.316 14.9766 20.121 15.1716C19.926 15.3666 19.926 15.6846 20.121 15.8787C20.687 16.4447 21 17.1977 21 17.9997C21 19.6536 19.654 20.9996 18 20.9996C17.198 20.9996 16.445 20.6876 15.879 20.1206C15.684 19.9256 15.367 19.9256 15.172 20.1206C14.977 20.3147 14.977 20.6327 15.172 20.8277C15.926 21.5837 16.931 21.9997 18 21.9997C20.206 21.9997 22 20.2057 22 17.9997C22 16.9306 21.584 15.9256 20.828 15.1716Z" fill="#848484"/>
<path d="M18.697 14.0686C18.47 14.0286 18.238 13.9996 18 13.9996C15.794 13.9996 14 15.7936 14 17.9996C14 18.2376 14.0291 18.4696 14.07 18.6966C14.113 18.9386 14.324 19.1096 14.561 19.1096C14.5901 19.1096 14.619 19.1076 14.649 19.1016C14.92 19.0536 15.102 18.7936 15.054 18.5226C15.023 18.3526 15 18.1796 15 17.9996C15 16.3456 16.346 14.9996 18 14.9996C18.18 14.9996 18.3531 15.0226 18.523 15.0526C18.789 15.1066 19.054 14.9186 19.102 14.6476C19.15 14.3766 18.9681 14.1166 18.697 14.0686Z" fill="#848484"/>
<path d="M29.881 17.6766C29.768 17.5426 27.063 14.3856 23.332 12.4527C23.09 12.3257 22.785 12.4217 22.658 12.6677C22.531 12.9127 22.627 13.2147 22.873 13.3417C25.747 14.8297 28.043 17.1517 28.828 17.9997C27.636 19.2907 22.945 23.9997 18 23.9997C16.322 23.9997 14.631 23.5947 12.972 22.7947C12.726 22.6737 12.4251 22.7787 12.3051 23.0277C12.1841 23.2757 12.2891 23.5747 12.5381 23.6947C14.333 24.5617 16.1711 24.9997 18.0001 24.9997C24.1611 24.9997 29.6511 18.5957 29.8821 18.3227C30.04 18.1366 30.039 17.8636 29.881 17.6766Z" fill="#848484"/>
<path d="M21.281 11.5756C20.1431 11.1926 19.0391 10.9996 18 10.9996C11.839 10.9996 6.34904 17.4036 6.11804 17.6766C5.97202 17.8486 5.96002 18.0987 6.09005 18.2856C6.15905 18.3846 7.81205 20.7316 10.677 22.6346C10.762 22.6916 10.857 22.7186 10.953 22.7186C11.1141 22.7186 11.2731 22.6406 11.3691 22.4936C11.5221 22.2647 11.4591 21.9536 11.229 21.8016C9.12506 20.4026 7.68507 18.7137 7.14605 18.0267C8.29707 16.7766 13.0191 11.9997 18 11.9997C18.931 11.9997 19.928 12.1757 20.962 12.5226C21.224 12.6166 21.508 12.4716 21.595 12.2086C21.683 11.9466 21.543 11.6637 21.281 11.5756Z" fill="#848484"/>
<path d="M26.853 9.14662C26.658 8.95162 26.341 8.95162 26.146 9.14662L9.14605 26.1466C8.95105 26.3416 8.95105 26.6586 9.14605 26.8536C9.24407 26.9506 9.37204 26.9996 9.50005 26.9996C9.62807 26.9996 9.75603 26.9506 9.85307 26.8536L26.853 9.85363C27.048 9.65863 27.048 9.34162 26.853 9.14662Z" fill="#848484"/>
</g>
<defs>
<clipPath id="clip0">
<rect x="6" y="6" width="24" height="24" fill="white"/>
</clipPath>
</defs>
</svg>
